<svg xmlns="http://www.w3.org/2000/svg" viewBox="0 0 256 256">
  <rect x="22" y="22" width="212" height="212" rx="54" fill="#1d241c"/>
  <rect x="25" y="25" width="206" height="206" rx="51" fill="none" stroke="#c6a56b" stroke-width="3"/>
  <path d="M56 194h144" fill="none" stroke="#f3eddf" stroke-opacity="0.2" stroke-linecap="round" stroke-width="18"/>
  <path d="M72 190 128 102l56 88Z" fill="#7d8f66"/>
  <path d="M116 124 128 102l12 22-12-4Z" fill="#f3eddf"/>
  <path d="M86 96Q128 50 170 96L160 102Q128 68 96 102Z" fill="#c6a56b"/>
  <path d="M100 82Q128 58 156 82L149 88Q128 70 107 88Z" fill="#d8bb84"/>
  <path d="M128 104v42" fill="none" stroke="#f3eddf" stroke-linecap="round" stroke-width="8"/>
  <circle cx="128" cy="95" r="9" fill="#f3eddf"/>
  <path d="M94 208h68" fill="none" stroke="#c6a56b" stroke-linecap="round" stroke-width="5"/>
</svg>
